<svg viewBox="0 0 500 500" xmlns="http://www.w3.org/2000/svg" fill="#006faa" style="background: #edc53b" >
  <title>Logo</title>
  <g>
    <path
      d="m116.01,199.57c7.82,21.47 26.14,35.42 46.42,35.42l69.14,0c4.15,0 7.33,-3.62 7.33,-8.37s-3.18,-8.37 -7.33,-8.37l-69.14,0c-14.41,0 -27.36,-9.76 -32.98,-25.1l-13.44,-36.81c-1.47,-4.18 -5.86,-6.42 -9.53,-4.46c-3.66,1.67 -5.62,6.7 -3.91,10.87l13.44,36.81l0,0.01zm249.19,87.01c-7.57,-14.51 -21.5,-23.71 -36.16,-23.71c-4.15,0 -7.33,3.62 -7.33,8.37s3.18,8.37 7.33,8.37c9.77,0 18.81,5.86 23.7,15.34l2.44,4.74c1.71,3.06 0.49,5.86 0,6.97c-0.49,1.11 -2.2,3.62 -5.37,3.62c-1.95,0 -3.91,-1.11 -5.13,-3.06c-2.2,-3.9 -6.84,-5.02 -10.26,-2.23c-3.42,2.51 -4.4,7.81 -1.95,11.71c3.91,6.7 10.26,10.6 17.35,10.6c7.57,0 14.41,-4.46 18.08,-11.99c3.66,-7.53 3.66,-16.46 -0.24,-23.71l-2.44,-5.02l-0.02,-0.01zm-184.94,76.69c-4.15,0 -7.33,3.62 -7.33,8.37s3.18,8.37 7.33,8.37c5.13,0 10.02,-2.79 13.19,-7.53s4.4,-10.87 2.93,-16.46l-4.4,-19.8c-0.98,-4.46 -4.89,-7.25 -9.04,-6.14c-3.91,1.11 -6.35,5.58 -5.37,10.32l4.4,19.8c0.24,1.11 -0.24,1.67 -0.49,2.23c0.24,0.28 -0.24,0.84 -1.22,0.84l0,-0.01z"
    />
    <path
      d="m392.81,170.84l-27.61,0c-1.47,-8.92 -5.13,-17.01 -10.99,-23.43c-7.33,-8.37 -17.35,-13.1 -27.61,-13.1c-0.24,0 -0.24,0 -0.49,0l-17.1,0.28c-2.93,-7.81 -10.02,-13.38 -17.83,-13.38c-24.19,0 -44.22,22.58 -44.22,50.19l0,27.05c0,9.76 3.18,18.96 9.28,25.94c6.11,6.97 14.17,10.6 22.72,10.6c0,0 0,0 0,0c17.59,0 32,-16.46 32,-36.53l0,-47.13l15.88,-0.28c6.6,0 12.95,2.79 17.59,8.09c4.64,5.3 7.33,12.55 7.33,20.08c0,4.74 3.18,8.37 7.33,8.37l26.87,0c0,1.67 0,3.34 0,5.3l0,1.39c0,13.1 -2.2,22.03 -6.35,26.77c-5.86,6.7 -17.35,6.14 -29.56,5.86c-12.22,-0.28 -24.92,-0.84 -36.4,5.3c-25.9,13.95 -28.58,75.57 -26.39,124.66c0,1.67 -0.49,3.34 -1.47,4.46c-0.98,1.11 -2.44,1.95 -3.91,1.95c-2.44,0 -4.64,-1.95 -5.13,-4.74c-1.71,-8.09 -2.69,-10.87 -3.18,-12.55c-11.97,-31.79 -39.09,-52.43 -69.38,-52.43l-1.47,0c-29.56,0 -55.95,20.36 -66.94,51.6c-0.24,0.84 -0.98,2.51 -3.18,12.82c-0.73,3.06 -3.18,5.3 -6.11,5.3c-2.69,0 -4.15,-1.67 -4.89,-2.79c-0.73,-1.11 -1.71,-3.06 -1.22,-6.14l6.84,-36.26c0.49,-2.79 0.98,-5.58 1.47,-8.37c3.66,-20.08 7.08,-39.04 17.59,-52.15c2.69,-3.34 2.44,-8.65 -0.49,-11.71c-2.93,-3.06 -7.57,-2.79 -10.26,0.56c-13.19,16.73 -17.1,37.65 -21.01,60.24c-0.49,2.79 -0.98,5.3 -1.47,8.09l-6.84,36.26c-1.22,7.25 0.24,14.51 4.15,20.08c3.91,5.58 10.02,8.92 16.37,8.92c9.53,0 17.83,-7.25 20.28,-17.85c1.95,-8.65 2.69,-10.6 2.69,-10.87c8.8,-25.1 29.81,-40.99 53.5,-40.99l1.47,0c24.43,0 46.17,16.46 55.46,42.12c0.24,0.84 0.98,3.06 2.44,10.04c2.2,10.32 10.26,17.57 19.54,17.57c5.37,0 10.75,-2.51 14.41,-7.25c3.66,-4.46 5.86,-10.6 5.37,-17.01c-3.18,-59.4 3.91,-101.23 17.59,-108.49c8.06,-4.46 19.06,-3.9 29.56,-3.62c14.66,0.56 29.81,0.84 40.07,-10.6c7.33,-8.09 10.75,-20.91 10.75,-38.76l0,-1.39c0,-8.09 0,-13.66 0,-13.66c0.24,-4.74 -2.93,-8.37 -7.08,-8.37l0.03,0z"
    />
    <path
      d="m326.84,170.84m-7.33,0a7.33,8.37 0 1 0 14.66,0a7.33,8.37 0 1 0 -14.66,0"
      data-cx="97"
      data-cy="52"
      data-r="3"
      data-type="circle"
    />
  </g>
</svg>